<?xml version="1.0" encoding="UTF-8"?>
<svg id="Capa_1" xmlns="http://www.w3.org/2000/svg" version="1.1" viewBox="0 0 1044.44 258.47">
  <!-- Generator: Adobe Illustrator 29.5.0, SVG Export Plug-In . SVG Version: 2.1.0 Build 137)  -->
  <g>
    <path d="M69.32,207.77V68.32H17.78v-15.65h122.83v15.65h-51.54v139.45h-19.75Z"/>
    <path d="M166.66,207.77V52.67h68.16c16.7,0,28.86,4.34,36.49,13.01,7.63,8.67,11.44,20.39,11.44,35.16,0,11.4-2.77,20.88-8.31,28.42-5.54,7.55-13.77,12.61-24.69,15.17,3.21,1.93,5.66,4.13,7.34,6.62,1.69,2.49,3.41,5.82,5.18,9.99l20.23,46.72h-20.23l-19.75-45.04c-2.09-4.82-4.62-8.27-7.59-10.36-2.97-2.08-8.23-3.13-15.78-3.13h-32.75v58.52h-19.75v.02ZM186.41,133.83h42.87c10.43,0,18.67-2.61,24.69-7.83,6.02-5.21,9.03-13.61,9.03-25.17,0-21.68-10.36-32.51-31.07-32.51h-45.52v65.51h0Z"/>
    <path d="M315.58,207.77V52.67h19.75v155.11h-19.75Z"/>
  </g>
  <g>
    <path d="M673.23,74.5c-7.47-3.92-17.09-5.92-28.6-5.92s-21.13,1.99-28.59,5.92c-7.4,3.89-13.01,10.42-16.68,19.41-3.71,9.08-5.59,21.48-5.59,36.86s1.88,27.79,5.59,36.87c3.67,8.99,9.29,15.52,16.68,19.41,7.45,3.93,17.07,5.92,28.59,5.92s21.14-1.99,28.6-5.92c7.4-3.89,13.01-10.42,16.68-19.41,3.71-9.08,5.59-21.48,5.59-36.87s-1.88-27.78-5.59-36.87c-3.67-8.98-9.28-15.51-16.68-19.4Z"/>
    <path d="M941.86,17.32H371.98v223.83h654.69l-84.81-223.83h0ZM543.15,209.24h-19.45l-.27-.39-86.49-122.17v122.56h-21.58V52.31h19.21l.27.39,86.73,122.42V52.31h21.58v156.93h0ZM699.38,192.2c-11.77,12.9-30.2,19.45-54.75,19.45s-42.77-6.54-54.62-19.44c-11.82-12.88-17.82-33.55-17.82-61.43s6-48.56,17.82-61.43c11.85-12.9,30.23-19.44,54.62-19.44s42.98,6.54,54.75,19.45c11.74,12.89,17.7,33.55,17.7,61.43s-5.96,48.54-17.7,61.43v-.02ZM787.02,208.74l-.22-.59-59.48-156.35h22.43l.22.6,49,132.8,49.45-133.4h22.43l-.47,1.24-58.99,155.7h-24.39.02ZM930.91,166.84h-71.18l6.71-17.58h60.15l-37.09-97.45h20.38l.22.59,59.62,157.34h-22.31l-16.48-42.9h-.02Z"/>
  </g>
</svg>